<svg width="24" height="25" viewBox="0 0 24 25" fill="none" xmlns="http://www.w3.org/2000/svg">
<path d="M10 8.38493C10.1762 7.88405 10.524 7.4617 10.9817 7.19267C11.4395 6.92364 11.9777 6.82529 12.501 6.91506C13.0243 7.00482 13.499 7.2769 13.8409 7.6831C14.1829 8.0893 14.37 8.60341 14.3692 9.13437C14.3692 10.6332 12.1209 11.3827 12.1209 11.3827M12.1499 14.3827H12.1599M7 18.3827V20.7182C7 21.251 7 21.5175 7.10923 21.6543C7.20422 21.7733 7.34827 21.8425 7.50054 21.8424C7.67563 21.8422 7.88367 21.6758 8.29976 21.3429L10.6852 19.4345C11.1725 19.0447 11.4162 18.8498 11.6875 18.7111C11.9282 18.5882 12.1844 18.4983 12.4492 18.4439C12.7477 18.3827 13.0597 18.3827 13.6837 18.3827H16.2C17.8802 18.3827 18.7202 18.3827 19.362 18.0557C19.9265 17.7681 20.3854 17.3091 20.673 16.7447C21 16.1029 21 15.2628 21 13.5827V8.18269C21 6.50253 21 5.66245 20.673 5.02072C20.3854 4.45623 19.9265 3.99729 19.362 3.70967C18.7202 3.38269 17.8802 3.38269 16.2 3.38269H7.8C6.11984 3.38269 5.27976 3.38269 4.63803 3.70967C4.07354 3.99729 3.6146 4.45623 3.32698 5.02072C3 5.66245 3 6.50253 3 8.18269V14.3827C3 15.3127 3 15.7776 3.10222 16.1591C3.37962 17.1944 4.18827 18.0031 5.22354 18.2805C5.60504 18.3827 6.07003 18.3827 7 18.3827Z" stroke="#E96E45" stroke-width="1.5" stroke-linecap="round" stroke-linejoin="round"/>
</svg>
