<svg width="24" height="25" viewBox="0 0 24 25" fill="none" xmlns="http://www.w3.org/2000/svg">
<path d="M9.35418 21.3827C10.0593 22.0051 10.9856 22.3827 12 22.3827C13.0145 22.3827 13.9407 22.0051 14.6458 21.3827M18 8.38269C18 6.79139 17.3679 5.26527 16.2426 4.14005C15.1174 3.01483 13.5913 2.38269 12 2.38269C10.4087 2.38269 8.88258 3.01483 7.75736 4.14005C6.63214 5.26527 6 6.79139 6 8.38269C6 11.4729 5.22047 13.5886 4.34967 14.9881C3.61513 16.1686 3.24786 16.7588 3.26133 16.9234C3.27624 17.1058 3.31486 17.1753 3.46178 17.2843C3.59446 17.3827 4.19259 17.3827 5.38886 17.3827H18.6111C19.8074 17.3827 20.4055 17.3827 20.5382 17.2843C20.6851 17.1753 20.7238 17.1058 20.7387 16.9234C20.7521 16.7588 20.3849 16.1686 19.6503 14.9881C18.7795 13.5886 18 11.4729 18 8.38269Z" stroke="#E96E45" stroke-width="1.5" stroke-linecap="round" stroke-linejoin="round"/>
</svg>
