<svg width="20" height="22" viewBox="0 0 20 22" fill="none" xmlns="http://www.w3.org/2000/svg">
<path fill-rule="evenodd" clip-rule="evenodd" d="M18.8066 7.0063L18.1842 5.92621C17.6576 5.01229 16.4907 4.69701 15.5755 5.22141V5.22141C15.1399 5.47803 14.6201 5.55084 14.1307 5.42378C13.6413 5.29671 13.2226 4.98021 12.9668 4.54406C12.8023 4.26684 12.7139 3.95108 12.7105 3.62873V3.62873C12.7254 3.11191 12.5304 2.61109 12.17 2.24036C11.8096 1.86963 11.3145 1.66055 10.7975 1.66077H9.54348C9.03695 1.66076 8.5513 1.8626 8.19398 2.22164C7.83667 2.58067 7.63716 3.06728 7.63959 3.57381V3.57381C7.62458 4.61962 6.77246 5.4595 5.72655 5.45939C5.4042 5.45605 5.08844 5.36763 4.81122 5.2031V5.2031C3.89605 4.6787 2.7291 4.99399 2.20252 5.90791L1.53433 7.0063C1.00839 7.91908 1.31938 9.0853 2.22998 9.615V9.615C2.82189 9.95673 3.18652 10.5883 3.18652 11.2718C3.18652 11.9552 2.82189 12.5868 2.22998 12.9285V12.9285C1.32054 13.4546 1.00921 14.618 1.53433 15.528V15.528L2.16591 16.6173C2.41263 17.0625 2.82659 17.391 3.31618 17.5301C3.80577 17.6693 4.33062 17.6076 4.77461 17.3587V17.3587C5.21106 17.104 5.73117 17.0343 6.21932 17.1649C6.70748 17.2955 7.12322 17.6157 7.37415 18.0544C7.53868 18.3316 7.62709 18.6473 7.63044 18.9697V18.9697C7.63044 20.0262 8.48694 20.8827 9.54348 20.8827H10.7975C11.8505 20.8827 12.7055 20.0318 12.7105 18.9788V18.9788C12.7081 18.4707 12.9089 17.9827 13.2681 17.6234C13.6274 17.2641 14.1155 17.0634 14.6236 17.0658C14.9452 17.0744 15.2596 17.1625 15.5389 17.3221V17.3221C16.4517 17.848 17.6179 17.537 18.1476 16.6264V16.6264L18.8066 15.528C19.0617 15.0902 19.1318 14.5687 19.0012 14.0791C18.8706 13.5894 18.5502 13.172 18.111 12.9193V12.9193C17.6717 12.6666 17.3514 12.2493 17.2208 11.7596C17.0902 11.27 17.1602 10.7485 17.4153 10.3107C17.5812 10.021 17.8214 9.78089 18.111 9.615V9.615C19.0161 9.08558 19.3264 7.92618 18.8066 7.01546V7.01546V7.0063Z" stroke="#E96E45" stroke-width="1.5" stroke-linecap="round" stroke-linejoin="round"/>
<circle cx="10.1751" cy="11.2718" r="2.63616" stroke="#E96E45" stroke-width="1.5" stroke-linecap="round" stroke-linejoin="round"/>
</svg>
