<svg width="20" height="23" viewBox="0 0 20 23" fill="none" xmlns="http://www.w3.org/2000/svg">
<path d="M19 9.38269H1M14 1.38269V5.38269M6 1.38269V5.38269M7 15.3827L9 17.3827L13.5 12.8827M5.8 21.3827H14.2C15.8802 21.3827 16.7202 21.3827 17.362 21.0557C17.9265 20.7681 18.3854 20.3091 18.673 19.7447C19 19.1029 19 18.2628 19 16.5827V8.18269C19 6.50253 19 5.66245 18.673 5.02072C18.3854 4.45623 17.9265 3.99729 17.362 3.70967C16.7202 3.38269 15.8802 3.38269 14.2 3.38269H5.8C4.11984 3.38269 3.27976 3.38269 2.63803 3.70967C2.07354 3.99729 1.6146 4.45623 1.32698 5.02072C1 5.66245 1 6.50253 1 8.18269V16.5827C1 18.2628 1 19.1029 1.32698 19.7447C1.6146 20.3091 2.07354 20.7681 2.63803 21.0557C3.27976 21.3827 4.11984 21.3827 5.8 21.3827Z" stroke="#E96E45" stroke-width="1.5" stroke-linecap="round" stroke-linejoin="round"/>
</svg>
